<svg xmlns="http://www.w3.org/2000/svg" xmlns:xlink="http://www.w3.org/1999/xlink" width="236" zoomAndPan="magnify" viewBox="0 0 177 44.249999" height="59" preserveAspectRatio="xMidYMid meet" version="1.0"><defs><g/></defs><path stroke-linecap="round" transform="matrix(0.7375, 0, 0, 0.7375, 23.921898, 34.987862)" fill="none" stroke-linejoin="miter" d="M 0.497851 0.49845 L 44.899337 0.49845 " stroke="#90816a" stroke-width="1" stroke-opacity="1" stroke-miterlimit="4"/><path stroke-linecap="round" transform="matrix(0.7375, 0, 0, 0.7375, 120.010056, 34.987862)" fill="none" stroke-linejoin="miter" d="M 0.500136 0.49845 L 48.302047 0.49845 " stroke="#90816a" stroke-width="1" stroke-opacity="1" stroke-miterlimit="4"/><g fill="#90816a" fill-opacity="1"><g transform="translate(21.869151, 23.119445)"><g><path d="M 1.53125 -0.921875 C 2.1875 -0.941406 2.65625 -1.085938 2.9375 -1.359375 C 3.21875 -1.640625 3.375 -1.972656 3.40625 -2.359375 C 3.445312 -2.742188 3.46875 -3.410156 3.46875 -4.359375 L 3.46875 -16.421875 C 3.46875 -17.203125 3.492188 -17.875 3.546875 -18.4375 L 1.53125 -18.328125 L 1.53125 -19.5625 L 8.125 -19.578125 C 11.625 -19.597656 14.398438 -18.78125 16.453125 -17.125 C 18.503906 -15.46875 19.53125 -13.007812 19.53125 -9.75 C 19.53125 -8 19.117188 -6.378906 18.296875 -4.890625 C 17.472656 -3.398438 16.257812 -2.210938 14.65625 -1.328125 C 13.0625 -0.441406 11.140625 0 8.890625 0 L 1.53125 0 Z M 8.796875 -1.0625 C 10.359375 -1.0625 11.742188 -1.441406 12.953125 -2.203125 C 14.171875 -2.972656 15.113281 -4.023438 15.78125 -5.359375 C 16.457031 -6.703125 16.796875 -8.203125 16.796875 -9.859375 C 16.796875 -12.578125 16.050781 -14.703125 14.5625 -16.234375 C 13.070312 -17.773438 10.828125 -18.546875 7.828125 -18.546875 C 7.171875 -18.546875 6.703125 -18.414062 6.421875 -18.15625 C 6.140625 -17.894531 5.976562 -17.570312 5.9375 -17.1875 C 5.90625 -16.8125 5.890625 -16.148438 5.890625 -15.203125 L 5.890625 -3.296875 C 5.890625 -2.328125 5.863281 -1.601562 5.8125 -1.125 C 6.457031 -1.082031 7.453125 -1.0625 8.796875 -1.0625 Z M 8.796875 -1.0625 "/></g></g></g><g fill="#90816a" fill-opacity="1"><g transform="translate(42.677789, 23.119445)"><g><path d="M 1.53125 -0.921875 C 2.1875 -0.941406 2.65625 -1.085938 2.9375 -1.359375 C 3.21875 -1.640625 3.375 -1.972656 3.40625 -2.359375 C 3.445312 -2.742188 3.46875 -3.410156 3.46875 -4.359375 L 3.46875 -16.421875 C 3.46875 -17.203125 3.492188 -17.875 3.546875 -18.4375 L 1.53125 -18.328125 L 1.53125 -19.5625 L 14.96875 -19.5625 L 15.109375 -14.671875 L 14.1875 -14.671875 C 14.1875 -16.191406 13.851562 -17.234375 13.1875 -17.796875 C 12.53125 -18.359375 11.609375 -18.617188 10.421875 -18.578125 L 8.015625 -18.515625 C 7.347656 -18.503906 6.863281 -18.378906 6.5625 -18.140625 C 6.269531 -17.910156 6.082031 -17.582031 6 -17.15625 C 5.925781 -16.738281 5.890625 -16.085938 5.890625 -15.203125 L 5.890625 -10.734375 L 11.140625 -10.703125 L 10.953125 -13.109375 L 12.1875 -13.109375 L 12.1875 -7.234375 L 11.265625 -7.234375 C 11.265625 -7.921875 11.175781 -8.445312 11 -8.8125 C 10.832031 -9.175781 10.578125 -9.414062 10.234375 -9.53125 C 9.890625 -9.65625 9.410156 -9.71875 8.796875 -9.71875 L 7.9375 -9.6875 L 5.890625 -9.609375 L 5.890625 -3.21875 C 5.890625 -2.25 5.863281 -1.519531 5.8125 -1.03125 L 11.140625 -1.125 C 12.453125 -1.132812 13.453125 -1.460938 14.140625 -2.109375 C 14.828125 -2.753906 15.171875 -3.867188 15.171875 -5.453125 L 16.125 -5.453125 L 15.953125 0 L 1.53125 0 Z M 1.53125 -0.921875 "/></g></g></g><g fill="#90816a" fill-opacity="1"><g transform="translate(60.050909, 23.119445)"><g><path d="M 10.5 -3.21875 C 9.082031 -6.363281 7.984375 -8.84375 7.203125 -10.65625 C 6.421875 -12.46875 5.660156 -14.382812 4.921875 -16.40625 L 4.890625 -15.171875 C 4.722656 -9.710938 4.617188 -5.816406 4.578125 -3.484375 C 4.578125 -3.210938 4.566406 -3.007812 4.546875 -2.875 C 4.546875 -2.238281 4.519531 -1.65625 4.46875 -1.125 L 6.5625 -1.234375 L 6.5625 0 L 1.234375 0 L 1.234375 -0.921875 C 2.015625 -0.941406 2.519531 -1.160156 2.75 -1.578125 C 2.976562 -1.992188 3.113281 -2.628906 3.15625 -3.484375 L 3.765625 -18.4375 L 1.765625 -18.359375 L 1.765625 -19.5625 L 6.03125 -19.5625 L 9.828125 -10.78125 C 11.210938 -7.539062 12.273438 -5.082031 13.015625 -3.40625 L 13.078125 -3.40625 C 13.296875 -3.96875 13.769531 -5.171875 14.5 -7.015625 C 15.207031 -8.796875 16.019531 -10.757812 16.9375 -12.90625 C 17.988281 -15.40625 18.898438 -17.625 19.671875 -19.5625 L 23.796875 -19.5625 L 23.796875 -18.640625 C 23.128906 -18.648438 22.632812 -18.460938 22.3125 -18.078125 C 22 -17.703125 21.84375 -17.054688 21.84375 -16.140625 L 21.875 -15.59375 L 22.59375 -2.875 C 22.632812 -2.445312 22.65625 -1.867188 22.65625 -1.140625 L 24.703125 -1.234375 L 24.703125 0 L 18.4375 0 L 18.4375 -0.921875 C 19.164062 -0.941406 19.660156 -1.148438 19.921875 -1.546875 C 20.179688 -1.953125 20.3125 -2.582031 20.3125 -3.4375 C 20.3125 -3.789062 20.300781 -4.0625 20.28125 -4.25 L 19.5625 -16.140625 C 19.519531 -16.054688 19.46875 -15.9375 19.40625 -15.78125 C 19.34375 -15.632812 19.269531 -15.457031 19.1875 -15.25 L 12.90625 0.28125 L 12.0625 0.28125 Z M 10.5 -3.21875 "/></g></g></g><g fill="#90816a" fill-opacity="1"><g transform="translate(85.691613, 23.119445)"><g><path d="M 1.53125 -0.921875 C 2.1875 -0.941406 2.65625 -1.085938 2.9375 -1.359375 C 3.21875 -1.640625 3.375 -1.972656 3.40625 -2.359375 C 3.445312 -2.742188 3.46875 -3.410156 3.46875 -4.359375 L 3.46875 -16.421875 C 3.46875 -17.203125 3.492188 -17.875 3.546875 -18.4375 L 1.53125 -18.328125 L 1.53125 -19.5625 L 14.96875 -19.5625 L 15.109375 -14.671875 L 14.1875 -14.671875 C 14.1875 -16.191406 13.851562 -17.234375 13.1875 -17.796875 C 12.53125 -18.359375 11.609375 -18.617188 10.421875 -18.578125 L 8.015625 -18.515625 C 7.347656 -18.503906 6.863281 -18.378906 6.5625 -18.140625 C 6.269531 -17.910156 6.082031 -17.582031 6 -17.15625 C 5.925781 -16.738281 5.890625 -16.085938 5.890625 -15.203125 L 5.890625 -10.734375 L 11.140625 -10.703125 L 10.953125 -13.109375 L 12.1875 -13.109375 L 12.1875 -7.234375 L 11.265625 -7.234375 C 11.265625 -7.921875 11.175781 -8.445312 11 -8.8125 C 10.832031 -9.175781 10.578125 -9.414062 10.234375 -9.53125 C 9.890625 -9.65625 9.410156 -9.71875 8.796875 -9.71875 L 7.9375 -9.6875 L 5.890625 -9.609375 L 5.890625 -3.21875 C 5.890625 -2.25 5.863281 -1.519531 5.8125 -1.03125 L 11.140625 -1.125 C 12.453125 -1.132812 13.453125 -1.460938 14.140625 -2.109375 C 14.828125 -2.753906 15.171875 -3.867188 15.171875 -5.453125 L 16.125 -5.453125 L 15.953125 0 L 1.53125 0 Z M 1.53125 -0.921875 "/></g></g></g><g fill="#90816a" fill-opacity="1"><g transform="translate(103.064733, 23.119445)"><g><path d="M 5.8125 -0.921875 C 6.613281 -0.960938 7.128906 -1.1875 7.359375 -1.59375 C 7.585938 -2 7.703125 -2.628906 7.703125 -3.484375 L 7.703125 -4.359375 L 7.734375 -18.515625 L 4.859375 -18.5 C 3.703125 -18.5 2.875 -18.109375 2.375 -17.328125 C 1.882812 -16.554688 1.640625 -15.332031 1.640625 -13.65625 L 0.609375 -13.65625 L 0.78125 -19.5625 L 17.0625 -19.5625 L 17.234375 -13.65625 L 16.171875 -13.65625 C 16.148438 -14.832031 16.03125 -15.769531 15.8125 -16.46875 C 15.601562 -17.164062 15.242188 -17.6875 14.734375 -18.03125 C 14.222656 -18.375 13.492188 -18.546875 12.546875 -18.546875 L 10.171875 -18.546875 L 10.140625 -3.328125 C 10.140625 -2.335938 10.113281 -1.601562 10.0625 -1.125 L 12.375 -1.234375 L 12.375 0 L 5.8125 0 Z M 5.8125 -0.921875 "/></g></g></g><g fill="#90816a" fill-opacity="1"><g transform="translate(120.940606, 23.119445)"><g><path d="M 1.53125 -0.921875 C 2.1875 -0.941406 2.65625 -1.085938 2.9375 -1.359375 C 3.21875 -1.640625 3.375 -1.972656 3.40625 -2.359375 C 3.445312 -2.742188 3.46875 -3.410156 3.46875 -4.359375 L 3.46875 -16.421875 C 3.46875 -17.203125 3.492188 -17.875 3.546875 -18.4375 L 1.53125 -18.328125 L 1.53125 -19.5625 C 3.46875 -19.59375 4.929688 -19.609375 5.921875 -19.609375 C 6.816406 -19.609375 7.488281 -19.597656 7.9375 -19.578125 C 10.5625 -19.546875 12.484375 -19.101562 13.703125 -18.25 C 14.921875 -17.40625 15.53125 -16.179688 15.53125 -14.578125 C 15.550781 -13.296875 15.171875 -12.140625 14.390625 -11.109375 C 13.609375 -10.085938 12.25 -9.382812 10.3125 -9 C 10.625 -8.75 10.910156 -8.457031 11.171875 -8.125 C 11.429688 -7.789062 11.785156 -7.269531 12.234375 -6.5625 L 14.140625 -3.578125 C 14.546875 -2.921875 14.882812 -2.421875 15.15625 -2.078125 C 15.425781 -1.734375 15.75 -1.453125 16.125 -1.234375 C 16.507812 -1.023438 16.984375 -0.921875 17.546875 -0.921875 L 17.546875 0 L 14.03125 0 C 13.519531 -0.425781 13.09375 -0.867188 12.75 -1.328125 C 12.40625 -1.785156 12 -2.375 11.53125 -3.09375 L 9.671875 -6.09375 L 9.296875 -6.671875 C 9.003906 -7.179688 8.742188 -7.59375 8.515625 -7.90625 C 8.296875 -8.21875 8.054688 -8.5 7.796875 -8.75 C 7.628906 -8.726562 7.367188 -8.71875 7.015625 -8.71875 C 6.515625 -8.71875 6.140625 -8.726562 5.890625 -8.75 L 5.890625 -3.328125 C 5.890625 -2.335938 5.863281 -1.601562 5.8125 -1.125 L 7.828125 -1.234375 L 7.828125 0 L 1.53125 0 Z M 7.125 -9.78125 C 10.925781 -9.78125 12.828125 -11.28125 12.828125 -14.28125 C 12.828125 -15.695312 12.414062 -16.753906 11.59375 -17.453125 C 10.769531 -18.160156 9.515625 -18.515625 7.828125 -18.515625 C 7.171875 -18.515625 6.703125 -18.382812 6.421875 -18.125 C 6.140625 -17.863281 5.976562 -17.546875 5.9375 -17.171875 C 5.90625 -16.804688 5.890625 -16.148438 5.890625 -15.203125 L 5.890625 -9.828125 C 6.453125 -9.796875 6.863281 -9.78125 7.125 -9.78125 Z M 7.125 -9.78125 "/></g></g></g><g fill="#90816a" fill-opacity="1"><g transform="translate(138.48131, 23.119445)"><g><path d="M -0.171875 -0.921875 C 0.296875 -0.921875 0.671875 -1.023438 0.953125 -1.234375 C 1.234375 -1.453125 1.460938 -1.734375 1.640625 -2.078125 C 1.816406 -2.421875 2.023438 -2.9375 2.265625 -3.625 L 2.546875 -4.421875 L 8.296875 -20.09375 L 8.96875 -20.09375 L 15.203125 -4.1875 C 15.398438 -3.6875 15.570312 -3.140625 15.71875 -2.546875 C 15.875 -1.960938 15.941406 -1.488281 15.921875 -1.125 L 17.828125 -1.234375 L 17.828125 0 L 11.421875 0 L 11.421875 -0.921875 C 12.523438 -0.941406 13.078125 -1.390625 13.078125 -2.265625 C 13.078125 -2.617188 12.984375 -3.054688 12.796875 -3.578125 L 11.8125 -6.203125 L 4.546875 -6.03125 C 4.273438 -5.269531 3.953125 -4.273438 3.578125 -3.046875 C 3.390625 -2.429688 3.15625 -1.789062 2.875 -1.125 L 5.0625 -1.234375 L 5.0625 0 L -0.171875 0 Z M 11.421875 -7.234375 L 9.4375 -12.578125 L 8.1875 -16.015625 L 8.125 -16.015625 L 6.953125 -12.84375 L 5.453125 -8.609375 L 4.96875 -7.234375 Z M 11.421875 -7.234375 "/></g></g></g><g fill="#272727" fill-opacity="1"><g transform="translate(61.957956, 36.829062)"><g><path d="M 2.765625 -0.84375 C 2.390625 -1.675781 2.097656 -2.332031 1.890625 -2.8125 C 1.691406 -3.289062 1.492188 -3.789062 1.296875 -4.3125 L 1.28125 -4 C 1.238281 -2.5625 1.210938 -1.535156 1.203125 -0.921875 C 1.203125 -0.847656 1.203125 -0.796875 1.203125 -0.765625 C 1.203125 -0.585938 1.191406 -0.429688 1.171875 -0.296875 L 1.734375 -0.328125 L 1.734375 0 L 0.328125 0 L 0.328125 -0.25 C 0.535156 -0.25 0.664062 -0.300781 0.71875 -0.40625 C 0.78125 -0.519531 0.816406 -0.691406 0.828125 -0.921875 L 1 -4.859375 L 0.46875 -4.828125 L 0.46875 -5.15625 L 1.59375 -5.15625 L 2.59375 -2.84375 C 2.957031 -1.988281 3.234375 -1.335938 3.421875 -0.890625 L 3.4375 -0.890625 C 3.5 -1.046875 3.625 -1.363281 3.8125 -1.84375 C 4 -2.3125 4.210938 -2.832031 4.453125 -3.40625 C 4.734375 -4.0625 4.976562 -4.644531 5.1875 -5.15625 L 6.265625 -5.15625 L 6.265625 -4.90625 C 6.085938 -4.914062 5.957031 -4.867188 5.875 -4.765625 C 5.789062 -4.660156 5.75 -4.488281 5.75 -4.25 L 5.765625 -4.109375 L 5.953125 -0.765625 C 5.960938 -0.648438 5.96875 -0.492188 5.96875 -0.296875 L 6.5 -0.328125 L 6.5 0 L 4.859375 0 L 4.859375 -0.25 C 5.046875 -0.25 5.171875 -0.300781 5.234375 -0.40625 C 5.304688 -0.507812 5.34375 -0.675781 5.34375 -0.90625 C 5.34375 -1 5.34375 -1.070312 5.34375 -1.125 L 5.15625 -4.25 C 5.144531 -4.226562 5.128906 -4.195312 5.109375 -4.15625 C 5.085938 -4.113281 5.070312 -4.066406 5.0625 -4.015625 L 3.40625 0.078125 L 3.171875 0.078125 Z M 2.765625 -0.84375 "/></g></g></g><g fill="#272727" fill-opacity="1"><g transform="translate(68.718888, 36.829062)"><g><path d="M 2.953125 0.125 C 2.367188 0.125 1.878906 -0.00390625 1.484375 -0.265625 C 1.085938 -0.523438 0.796875 -0.859375 0.609375 -1.265625 C 0.429688 -1.679688 0.34375 -2.117188 0.34375 -2.578125 C 0.34375 -3.015625 0.4375 -3.4375 0.625 -3.84375 C 0.820312 -4.257812 1.113281 -4.597656 1.5 -4.859375 C 1.882812 -5.128906 2.351562 -5.265625 2.90625 -5.265625 C 3.46875 -5.265625 3.945312 -5.128906 4.34375 -4.859375 C 4.738281 -4.597656 5.03125 -4.257812 5.21875 -3.84375 C 5.414062 -3.4375 5.515625 -3.015625 5.515625 -2.578125 C 5.515625 -2.140625 5.414062 -1.710938 5.21875 -1.296875 C 5.03125 -0.890625 4.742188 -0.550781 4.359375 -0.28125 C 3.972656 -0.0078125 3.503906 0.125 2.953125 0.125 Z M 2.96875 -0.1875 C 3.351562 -0.1875 3.679688 -0.296875 3.953125 -0.515625 C 4.222656 -0.734375 4.425781 -1.015625 4.5625 -1.359375 C 4.707031 -1.703125 4.78125 -2.0625 4.78125 -2.4375 C 4.78125 -2.851562 4.703125 -3.253906 4.546875 -3.640625 C 4.398438 -4.035156 4.179688 -4.351562 3.890625 -4.59375 C 3.597656 -4.84375 3.257812 -4.96875 2.875 -4.96875 C 2.488281 -4.96875 2.160156 -4.859375 1.890625 -4.640625 C 1.617188 -4.421875 1.410156 -4.140625 1.265625 -3.796875 C 1.128906 -3.453125 1.0625 -3.085938 1.0625 -2.703125 C 1.0625 -2.316406 1.128906 -1.925781 1.265625 -1.53125 C 1.410156 -1.144531 1.628906 -0.820312 1.921875 -0.5625 C 2.210938 -0.3125 2.5625 -0.1875 2.96875 -0.1875 Z M 2.96875 -0.1875 "/></g></g></g><g fill="#272727" fill-opacity="1"><g transform="translate(74.566572, 36.829062)"><g><path d="M 1.234375 -4.171875 L 1.25 -1.015625 C 1.25 -0.691406 1.242188 -0.453125 1.234375 -0.296875 L 1.765625 -0.328125 L 1.765625 0 L 0.421875 0 L 0.421875 -0.25 C 0.617188 -0.25 0.75 -0.300781 0.8125 -0.40625 C 0.875 -0.519531 0.90625 -0.660156 0.90625 -0.828125 L 0.90625 -4.859375 L 0.421875 -4.828125 L 0.421875 -5.15625 L 1.296875 -5.15625 L 4.4375 -0.953125 L 4.4375 -4.328125 C 4.4375 -4.535156 4.445312 -4.710938 4.46875 -4.859375 L 3.9375 -4.828125 L 3.9375 -5.15625 L 5.296875 -5.15625 L 5.296875 -4.90625 C 5.148438 -4.90625 5.039062 -4.878906 4.96875 -4.828125 C 4.894531 -4.773438 4.847656 -4.703125 4.828125 -4.609375 C 4.804688 -4.523438 4.796875 -4.410156 4.796875 -4.265625 L 4.796875 -4 L 4.78125 0.125 L 4.4375 0.125 Z M 1.234375 -4.171875 "/></g></g></g><g fill="#272727" fill-opacity="1"><g transform="translate(80.17858, 36.829062)"><g><path d="M 1.53125 -0.25 C 1.738281 -0.25 1.875 -0.300781 1.9375 -0.40625 C 2 -0.519531 2.03125 -0.691406 2.03125 -0.921875 L 2.03125 -4.875 L 1.28125 -4.875 C 0.976562 -4.875 0.757812 -4.769531 0.625 -4.5625 C 0.5 -4.363281 0.4375 -4.039062 0.4375 -3.59375 L 0.15625 -3.59375 L 0.203125 -5.15625 L 4.5 -5.15625 L 4.546875 -3.59375 L 4.265625 -3.59375 C 4.253906 -3.90625 4.21875 -4.148438 4.15625 -4.328125 C 4.101562 -4.515625 4.007812 -4.65625 3.875 -4.75 C 3.738281 -4.84375 3.546875 -4.890625 3.296875 -4.890625 L 2.671875 -4.890625 L 2.671875 -0.875 C 2.671875 -0.613281 2.664062 -0.421875 2.65625 -0.296875 L 3.265625 -0.328125 L 3.265625 0 L 1.53125 0 Z M 1.53125 -0.25 "/></g></g></g><g fill="#272727" fill-opacity="1"><g transform="translate(84.892081, 36.829062)"><g><path d="M 0.40625 -0.25 C 0.570312 -0.25 0.691406 -0.285156 0.765625 -0.359375 C 0.847656 -0.429688 0.890625 -0.515625 0.890625 -0.609375 C 0.898438 -0.710938 0.90625 -0.890625 0.90625 -1.140625 L 0.90625 -4.328125 C 0.90625 -4.535156 0.914062 -4.710938 0.9375 -4.859375 L 0.40625 -4.828125 L 0.40625 -5.15625 L 3.9375 -5.15625 L 3.984375 -3.859375 L 3.734375 -3.859375 C 3.734375 -4.265625 3.644531 -4.539062 3.46875 -4.6875 C 3.300781 -4.832031 3.0625 -4.898438 2.75 -4.890625 L 2.109375 -4.875 C 1.929688 -4.875 1.800781 -4.84375 1.71875 -4.78125 C 1.644531 -4.71875 1.597656 -4.628906 1.578125 -4.515625 C 1.554688 -4.410156 1.546875 -4.238281 1.546875 -4 L 1.546875 -2.828125 L 2.9375 -2.8125 L 2.890625 -3.453125 L 3.203125 -3.453125 L 3.203125 -1.90625 L 2.96875 -1.90625 C 2.96875 -2.082031 2.941406 -2.21875 2.890625 -2.3125 C 2.847656 -2.414062 2.78125 -2.484375 2.6875 -2.515625 C 2.601562 -2.546875 2.476562 -2.5625 2.3125 -2.5625 L 2.09375 -2.546875 L 1.546875 -2.53125 L 1.546875 -0.84375 C 1.546875 -0.59375 1.539062 -0.398438 1.53125 -0.265625 L 2.9375 -0.296875 C 3.28125 -0.296875 3.539062 -0.378906 3.71875 -0.546875 C 3.90625 -0.722656 4 -1.019531 4 -1.4375 L 4.25 -1.4375 L 4.203125 0 L 0.40625 0 Z M 0.40625 -0.25 "/></g></g></g><g fill="#272727" fill-opacity="1"><g transform="translate(89.473014, 36.829062)"><g/></g></g><g fill="#272727" fill-opacity="1"><g transform="translate(91.409968, 36.829062)"><g><path d="M 2.84375 0.125 C 2.363281 0.125 1.929688 0.0078125 1.546875 -0.21875 C 1.171875 -0.457031 0.875 -0.773438 0.65625 -1.171875 C 0.445312 -1.566406 0.34375 -2.007812 0.34375 -2.5 C 0.34375 -2.976562 0.4375 -3.425781 0.625 -3.84375 C 0.820312 -4.269531 1.113281 -4.613281 1.5 -4.875 C 1.882812 -5.132812 2.347656 -5.265625 2.890625 -5.265625 C 3.429688 -5.265625 3.925781 -5.117188 4.375 -4.828125 L 4.34375 -5.21875 L 4.734375 -5.21875 L 4.734375 -3.515625 L 4.46875 -3.515625 C 4.425781 -3.960938 4.265625 -4.316406 3.984375 -4.578125 C 3.710938 -4.835938 3.363281 -4.96875 2.9375 -4.96875 C 2.59375 -4.96875 2.273438 -4.867188 1.984375 -4.671875 C 1.703125 -4.484375 1.476562 -4.207031 1.3125 -3.84375 C 1.144531 -3.488281 1.0625 -3.078125 1.0625 -2.609375 C 1.0625 -2.148438 1.148438 -1.742188 1.328125 -1.390625 C 1.503906 -1.035156 1.738281 -0.757812 2.03125 -0.5625 C 2.332031 -0.363281 2.664062 -0.265625 3.03125 -0.265625 C 3.363281 -0.265625 3.679688 -0.335938 3.984375 -0.484375 C 4.285156 -0.628906 4.535156 -0.835938 4.734375 -1.109375 L 4.921875 -0.953125 C 4.640625 -0.554688 4.3125 -0.273438 3.9375 -0.109375 C 3.570312 0.046875 3.207031 0.125 2.84375 0.125 Z M 2.84375 0.125 "/></g></g></g><g fill="#272727" fill-opacity="1"><g transform="translate(96.557996, 36.829062)"><g><path d="M -0.046875 -0.25 C 0.078125 -0.25 0.175781 -0.273438 0.25 -0.328125 C 0.320312 -0.378906 0.378906 -0.453125 0.421875 -0.546875 C 0.472656 -0.640625 0.53125 -0.773438 0.59375 -0.953125 L 0.671875 -1.15625 L 2.1875 -5.296875 L 2.359375 -5.296875 L 4 -1.109375 C 4.050781 -0.972656 4.097656 -0.828125 4.140625 -0.671875 C 4.179688 -0.515625 4.195312 -0.390625 4.1875 -0.296875 L 4.6875 -0.328125 L 4.6875 0 L 3.015625 0 L 3.015625 -0.25 C 3.296875 -0.25 3.4375 -0.363281 3.4375 -0.59375 C 3.4375 -0.6875 3.414062 -0.800781 3.375 -0.9375 L 3.109375 -1.640625 L 1.203125 -1.59375 C 1.128906 -1.382812 1.039062 -1.117188 0.9375 -0.796875 C 0.894531 -0.640625 0.835938 -0.472656 0.765625 -0.296875 L 1.328125 -0.328125 L 1.328125 0 L -0.046875 0 Z M 3.015625 -1.90625 L 2.484375 -3.3125 L 2.15625 -4.21875 L 2.140625 -4.21875 L 1.828125 -3.390625 L 1.4375 -2.265625 L 1.3125 -1.90625 Z M 3.015625 -1.90625 "/></g></g></g><g fill="#272727" fill-opacity="1"><g transform="translate(101.168391, 36.829062)"><g><path d="M 0.40625 -0.25 C 0.570312 -0.25 0.691406 -0.285156 0.765625 -0.359375 C 0.847656 -0.429688 0.890625 -0.515625 0.890625 -0.609375 C 0.898438 -0.710938 0.90625 -0.890625 0.90625 -1.140625 L 0.90625 -4.328125 C 0.90625 -4.535156 0.914062 -4.710938 0.9375 -4.859375 L 0.40625 -4.828125 L 0.40625 -5.15625 C 0.914062 -5.164062 1.300781 -5.171875 1.5625 -5.171875 C 1.789062 -5.171875 1.96875 -5.164062 2.09375 -5.15625 C 2.78125 -5.144531 3.285156 -5.023438 3.609375 -4.796875 C 3.929688 -4.578125 4.09375 -4.257812 4.09375 -3.84375 C 4.09375 -3.5 3.988281 -3.191406 3.78125 -2.921875 C 3.582031 -2.660156 3.226562 -2.476562 2.71875 -2.375 C 2.800781 -2.3125 2.875 -2.234375 2.9375 -2.140625 C 3.007812 -2.054688 3.101562 -1.921875 3.21875 -1.734375 L 3.71875 -0.9375 C 3.832031 -0.769531 3.921875 -0.640625 3.984375 -0.546875 C 4.054688 -0.453125 4.144531 -0.378906 4.25 -0.328125 C 4.351562 -0.273438 4.476562 -0.25 4.625 -0.25 L 4.625 0 L 3.6875 0 C 3.5625 -0.113281 3.453125 -0.226562 3.359375 -0.34375 C 3.265625 -0.46875 3.160156 -0.625 3.046875 -0.8125 L 2.546875 -1.609375 L 2.453125 -1.765625 C 2.367188 -1.890625 2.296875 -1.992188 2.234375 -2.078125 C 2.179688 -2.160156 2.117188 -2.234375 2.046875 -2.296875 C 2.003906 -2.296875 1.9375 -2.296875 1.84375 -2.296875 C 1.71875 -2.296875 1.617188 -2.296875 1.546875 -2.296875 L 1.546875 -0.875 C 1.546875 -0.613281 1.539062 -0.421875 1.53125 -0.296875 L 2.0625 -0.328125 L 2.0625 0 L 0.40625 0 Z M 1.875 -2.578125 C 2.875 -2.578125 3.375 -2.972656 3.375 -3.765625 C 3.375 -4.128906 3.265625 -4.40625 3.046875 -4.59375 C 2.835938 -4.78125 2.507812 -4.875 2.0625 -4.875 C 1.882812 -4.875 1.757812 -4.835938 1.6875 -4.765625 C 1.613281 -4.703125 1.570312 -4.617188 1.5625 -4.515625 C 1.550781 -4.421875 1.546875 -4.25 1.546875 -4 L 1.546875 -2.59375 C 1.703125 -2.582031 1.8125 -2.578125 1.875 -2.578125 Z M 1.875 -2.578125 "/></g></g></g><g fill="#272727" fill-opacity="1"><g transform="translate(105.793516, 36.829062)"><g><path d="M 0.40625 -0.25 C 0.570312 -0.25 0.691406 -0.285156 0.765625 -0.359375 C 0.847656 -0.429688 0.890625 -0.515625 0.890625 -0.609375 C 0.898438 -0.710938 0.90625 -0.890625 0.90625 -1.140625 L 0.90625 -4.328125 C 0.90625 -4.535156 0.914062 -4.710938 0.9375 -4.859375 L 0.40625 -4.828125 L 0.40625 -5.15625 L 2.0625 -5.15625 L 2.0625 -4.90625 C 1.882812 -4.90625 1.757812 -4.867188 1.6875 -4.796875 C 1.613281 -4.722656 1.570312 -4.632812 1.5625 -4.53125 C 1.550781 -4.425781 1.546875 -4.25 1.546875 -4 L 1.546875 -0.84375 C 1.546875 -0.59375 1.539062 -0.398438 1.53125 -0.265625 L 2.90625 -0.296875 C 3.21875 -0.296875 3.453125 -0.394531 3.609375 -0.59375 C 3.765625 -0.789062 3.84375 -1.097656 3.84375 -1.515625 L 4.09375 -1.515625 L 4.0625 0 L 0.40625 0 Z M 0.40625 -0.25 "/></g></g></g><g fill="#272727" fill-opacity="1"><g transform="translate(110.050398, 36.829062)"><g><path d="M 2.953125 0.125 C 2.367188 0.125 1.878906 -0.00390625 1.484375 -0.265625 C 1.085938 -0.523438 0.796875 -0.859375 0.609375 -1.265625 C 0.429688 -1.679688 0.34375 -2.117188 0.34375 -2.578125 C 0.34375 -3.015625 0.4375 -3.4375 0.625 -3.84375 C 0.820312 -4.257812 1.113281 -4.597656 1.5 -4.859375 C 1.882812 -5.128906 2.351562 -5.265625 2.90625 -5.265625 C 3.46875 -5.265625 3.945312 -5.128906 4.34375 -4.859375 C 4.738281 -4.597656 5.03125 -4.257812 5.21875 -3.84375 C 5.414062 -3.4375 5.515625 -3.015625 5.515625 -2.578125 C 5.515625 -2.140625 5.414062 -1.710938 5.21875 -1.296875 C 5.03125 -0.890625 4.742188 -0.550781 4.359375 -0.28125 C 3.972656 -0.0078125 3.503906 0.125 2.953125 0.125 Z M 2.96875 -0.1875 C 3.351562 -0.1875 3.679688 -0.296875 3.953125 -0.515625 C 4.222656 -0.734375 4.425781 -1.015625 4.5625 -1.359375 C 4.707031 -1.703125 4.78125 -2.0625 4.78125 -2.4375 C 4.78125 -2.851562 4.703125 -3.253906 4.546875 -3.640625 C 4.398438 -4.035156 4.179688 -4.351562 3.890625 -4.59375 C 3.597656 -4.84375 3.257812 -4.96875 2.875 -4.96875 C 2.488281 -4.96875 2.160156 -4.859375 1.890625 -4.640625 C 1.617188 -4.421875 1.410156 -4.140625 1.265625 -3.796875 C 1.128906 -3.453125 1.0625 -3.085938 1.0625 -2.703125 C 1.0625 -2.316406 1.128906 -1.925781 1.265625 -1.53125 C 1.410156 -1.144531 1.628906 -0.820312 1.921875 -0.5625 C 2.210938 -0.3125 2.5625 -0.1875 2.96875 -0.1875 Z M 2.96875 -0.1875 "/></g></g></g></svg>